PathFileType	4	(X/Y/Z)	AB11\squats_1.trc
DataRate	CameraRate	NumFrames	NumMarkers	Units	OrigDataRate	OrigDataStartFrame	OrigNumFrames
200.000000	200.000000	4	35	mm	200.000000	118	317
Frame#	Time	C7			LSHO			STRN			LASI			RASI			LPSI			RPSI			LGTR			RGTR			LTHC			LTHL			LTHR			LKNE			LMKNE			LSHC			LSHL			LSHR			LANK			LMANK			LMT1			LMT5			LCAL			RTHC			RTHL			RTHR			RKNE			RMKNE			RSHC			RSHL			RSHR			RANK			RMANK			RMT1			RMT5			RCAL			
		X1	Y1	Z1	X2	Y2	Z2	X3	Y3	Z3	X4	Y4	Z4	X5	Y5	Z5	X6	Y6	Z6	X7	Y7	Z7	X8	Y8	Z8	X9	Y9	Z9	X10	Y10	Z10	X11	Y11	Z11	X12	Y12	Z12	X13	Y13	Z13	X14	Y14	Z14	X15	Y15	Z15	X16	Y16	Z16	X17	Y17	Z17	X18	Y18	Z18	X19	Y19	Z19	X20	Y20	Z20	X21	Y21	Z21	X22	Y22	Z22	X23	Y23	Z23	X24	Y24	Z24	X25	Y25	Z25	X26	Y26	Z26	X27	Y27	Z27	X28	Y28	Z28	X29	Y29	Z29	X30	Y30	Z30	X31	Y31	Z31	X32	Y32	Z32	X33	Y33	Z33	X34	Y34	Z34	X35	Y35	Z35	

119	22.245	-2249.041743551759	873.8462120349315	2494.790902899466	-2169.603980036532	815.9139824510297	2376.451686822513	-2168.153973976046	737.8860623976266	2485.244459267356	-2386.619297286204	509.4048835739434	2349.553877501798	-2391.436400869493	523.0325114025609	2596.242703682361	-2589.315989098825	558.7504807774009	2424.384405208428	-2592.008134685367	562.5641777976194	2519.251699923037	-2462.186339987848	507.4611608313212	2270.850760737144	-2502.32609856853	519.3981688332223	2680.875780527139	-2339.04563061303	379.3747837505579	2256.096307061494	-2242.941737688753	501.7153308160069	2328.553699658108	-2255.489614285893	323.3040107193575	2311.195142450029	-2138.085927222588	375.210043155512	2241.602931973538	-2122.445440605825	355.3145999740354	2375.603944671463	-2232.666391310597	315.7192637872873	2228.053575372415	-2235.351507555663	176.7026371609732	2247.086951963983	-2305.994617353703	237.3027591094009	2301.446334958302	-2341.547486915341	96.48533005855187	2224.275288598777	-2318.102044483658	95.36804751811535	2308.353947855851	-2205.979402791442	60.80308337794552	2271.022618874073	-2246.199448417011	55.5139747957753	2191.160688123286	-2415.093971942391	69.43072656905738	2265.930797897252	-2218.179385708919	485.1626932095937	2578.219613354401	-2343.586658650272	431.5793546290458	2697.012221551391	-2299.246283974034	369.3163730799159	2686.646616995284	-2155.738711621848	394.4923716817799	2704.638548328468	-2139.576914821253	344.0627645355992	2573.51203931677	-2230.506516072551	169.2517403747536	2683.131631748454	-2323.133786278227	215.3367107326659	2657.863386932006	-2259.782695906761	263.4010182732682	2724.652708243955	-2342.918200457952	94.74316122859211	2722.675312326146	-2322.883291741603	88.21265885166707	2640.79797317608	-2202.598449262947	63.40435053090231	2687.639307919738	-2239.151681382308	52.60477686424954	2763.878583147432	-2409.39350564802	65.91131156512628	2672.729574769749	
120	22.25	-2249.372533082671	870.0043942031798	2494.7002318288	-2169.493669555974	812.2364858700137	2376.755638806697	-2168.362460706495	734.1260184051207	2485.210606869831	-2387.302150371505	507.0591442607283	2349.792591521618	-2392.228003413986	520.7907103057663	2596.064849545647	-2590.177788032367	555.5229874471102	2424.360398545233	-2592.896431171509	559.4095463673482	2519.20894450231	-2462.784882373769	504.7909308870294	2270.987421461267	-2503.078409106903	516.8436506134904	2680.821620135048	-2339.057367618595	377.7251585054549	2256.155104276695	-2243.799370465346	500.6360413020593	2328.8832601824	-2255.228646310379	322.6278236154459	2311.359749285083	-2138.059909311882	375.0748721538009	2241.74662705824	-2122.27486578271	355.1214232884114	2375.878534088251	-2232.711452665621	315.5709255913384	2228.219680218891	-2235.292151447775	176.6260053939224	2247.30210501824	-2305.93348431921	237.1526913197995	2301.662246482916	-2341.539354365073	96.49896641925206	2224.388338252709	-2318.07468025025	95.30609160086392	2308.490972645253	-2205.965596086861	60.79283121293998	2271.049955152826	-2246.210271871205	55.52110247898482	2191.204391504246	-2415.079584584826	69.41901318060295	2265.990048084678	-2218.997739564063	484.3924357427589	2578.209239324456	-2344.006192709899	430.0984614697447	2697.132156271846	-2299.325971865586	368.1770053294412	2686.886723030362	-2155.92257121173	394.3765935815224	2704.782740548653	-2139.473434561005	343.8864974095531	2573.604682165222	-2230.522953635453	169.2391199674331	2683.143215459758	-2323.207313016439	215.2844100433257	2657.857631416863	-2259.854084035066	263.3142279712726	2724.718914481395	-2342.927171742152	94.71644196559063	2722.621876894378	-2322.875554319362	88.15527070241284	2640.756735062479	-2202.606449489512	63.41127816106127	2687.616755144979	-2239.158435419882	52.61108059344748	2763.856040069257	-2409.39628828031	65.90993757494192	2672.71188533652	
121	22.255	-2249.700343934849	866.2365701370135	2494.642080460861	-2169.404396169249	808.6516951759398	2377.055551772101	-2168.578189910162	730.4588301484656	2485.178406382233	-2387.984110710232	504.7671768172555	2350.034114023515	-2393.010274013345	518.5999383039114	2595.875984311354	-2591.020134609673	552.377682414433	2424.332683873337	-2593.760106295932	556.3420121489353	2519.162111803127	-2463.374728635943	502.1831736131801	2271.119295043306	-2503.810850435983	514.3701153083475	2680.760397608342	-2339.074453061649	376.1182642393499	2256.218311699224	-2244.649614171351	499.5816760598316	2329.214292195115	-2254.991752214971	321.9901616302392	2311.530171862123	-2138.047387319334	374.9519169109805	2241.898712809903	-2122.120455048044	354.94744152996	2376.159806701631	-2232.766722727509	315.4329176382981	2228.389834597641	-2235.235925878118	176.5589635481568	2247.520831557721	-2305.878403985981	237.0038611376649	2301.881529672552	-2341.533928721149	96.51249439578869	2224.498846668508	-2318.047991472001	95.2361625876319	2308.626251376458	-2205.95173115741	60.78410905775029	2271.078023044005	-2246.220557444155	55.52903698899477	2191.248419441387	-2415.06545049052	69.40528172702706	2266.048384054473	-2219.814253899514	483.6408190228381	2578.182291582521	-2344.425618081836	428.6765139370139	2697.246262707774	-2299.419022414584	367.0904571235954	2687.126518111207	-2156.120123849727	394.2784490328378	2704.910063630251	-2139.393980513871	343.7269153631132	2573.692921703669	-2230.544952830144	169.2323201173299	2683.15461641595	-2323.288308932209	215.2356635331625	2657.85789994987	-2259.931330812542	263.2339939998973	2724.789980860861	-2342.936880334816	94.6890157951738	2722.571133963858	-2322.87108020554	88.09881590421023	2640.718210129683	-2202.614365415424	63.41874729355284	2687.594597224128	-2239.165228220303	52.61548766322821	2763.833751581004	-2409.399659978422	65.90795820138987	2672.696934852601	
122	22.26	-2250.019315289098	862.5461220604066	2494.620379027983	-2169.335661142054	805.1601468680686	2377.351758676208	-2168.800484788499	726.8858868251448	2485.148397623142	-2388.664614319788	502.5318620253578	2350.27575820375	-2393.783356396897	516.4605706217051	2595.677597483644	-2591.843815894455	549.3144547653984	2424.301628681837	-2594.600273079447	553.3603133268994	2519.11188962508	-2463.95609869351	499.6405880332745	2271.245894210699	-2504.524664374161	511.9745631600759	2680.692731076846	-2339.095775619076	374.5557677745225	2256.284260522838	-2245.490702863851	498.553535462531	2329.54424064532	-2254.777477278233	321.3882022983239	2311.702859645603	-2138.047168145521	374.8406441761787	2242.057188507809	-2121.98127660121	354.7917723996627	2376.445603194795	-2232.8310446848	315.3052349287434	2228.562470409062	-2235.182604445755	176.5018180646082	2247.741485966799	-2305.829355588383	236.8570208686478	2302.10217477862	-2341.530810379826	96.52600738458432	2224.606437430394	-2318.021892792433	95.15827671791708	2308.759204793416	-2205.937786467037	60.7767386924296	2271.106702113977	-2246.229941759506	55.53803852780299	2191.29278456386	-2415.051362388634	69.38989738876762	2266.105744288193	-2220.627695662028	482.9082065850379	2578.140166602521	-2344.84461334017	427.3117258652978	2697.354665522772	-2299.524671502701	366.0549204979767	2687.365210513509	-2156.330957202368	394.1982743924995	2705.02287808172	-2139.336271381229	343.5845320092823	2573.777786449128	-2230.572228717761	169.2311961599946	2683.166040716523	-2323.375668353789	215.1903233819305	2657.864251250709	-2260.014408612049	263.1602829811356	2724.865957666839	-2342.947256265412	94.66128099398595	2722.523270750707	-2322.869723114354	88.04365330745009	2640.682282533131	-2202.622181368787	63.42674766503985	2687.572904863607	-2239.172172989684	52.61827393379944	2763.811815812614	-2409.403667700314	65.90519026366121	2672.684191316192	
